<?xml version="1.0" standalone="no"?>
<!DOCTYPE svg PUBLIC "-//W3C//DTD SVG 20010904//EN"
 "http://www.w3.org/TR/2001/REC-SVG-20010904/DTD/svg10.dtd">
<svg version="1.0" xmlns="http://www.w3.org/2000/svg"
 width="454.000000pt" height="247.000000pt" viewBox="0 0 454.000000 247.000000"
 preserveAspectRatio="xMidYMid meet">

<g transform="translate(0.000000,247.000000) scale(0.100000,-0.100000)"
fill="#000000" stroke="none">
<path d="M3100 1150 c0 -6 72 -10 195 -10 123 0 195 4 195 10 0 6 -72 10 -195
10 -123 0 -195 -4 -195 -10z"/>
<path d="M1920 895 c0 -8 -13 -29 -29 -47 l-29 -33 -159 -5 c-198 -6 -213 -24
-23 -28 158 -3 209 10 241 62 21 34 25 66 9 66 -5 0 -10 -7 -10 -15z"/>
<path d="M2073 853 c15 -2 37 -2 50 0 12 2 0 4 -28 4 -27 0 -38 -2 -22 -4z"/>
<path d="M80 416 c0 -8 7 -22 16 -30 13 -14 56 -16 310 -16 189 0 294 4 294
10 0 6 -103 10 -290 10 -279 0 -290 1 -302 20 -15 23 -28 26 -28 6z"/>
<path d="M1850 375 c0 -13 24 -15 177 -13 130 2 177 6 181 16 3 9 -37 12 -177
12 -155 0 -181 -2 -181 -15z"/>
<path d="M2310 110 c0 -6 34 -10 81 -10 51 0 78 4 74 10 -3 6 -40 10 -81 10
-43 0 -74 -4 -74 -10z"/>
</g>
</svg>
