<?xml version="1.0" standalone="no"?>
<!DOCTYPE svg PUBLIC "-//W3C//DTD SVG 20010904//EN"
 "http://www.w3.org/TR/2001/REC-SVG-20010904/DTD/svg10.dtd">
<svg version="1.0" xmlns="http://www.w3.org/2000/svg"
 width="373.000000pt" height="281.000000pt" viewBox="0 0 373.000000 281.000000"
 preserveAspectRatio="xMidYMid meet">

<g transform="translate(0.000000,281.000000) scale(0.100000,-0.100000)"
fill="#000000" stroke="none">
<path d="M1000 1631 l0 -50 -42 -3 c-35 -2 -46 -9 -65 -37 -27 -40 -29 -80 -7
-127 20 -41 71 -61 124 -47 l35 9 3 152 3 152 -26 0 c-23 0 -25 -3 -25 -49z
m-5 -156 c0 -67 -3 -80 -17 -83 -9 -2 -26 6 -37 17 -44 44 -15 159 37 149 14
-3 17 -16 17 -83z"/>
<path d="M1500 1640 c-11 -7 -12 -12 -4 -20 8 -8 14 -8 18 -2 4 7 18 6 41 -1
26 -7 39 -7 46 0 15 15 1 37 -14 25 -7 -5 -21 -6 -32 -1 -27 10 -37 10 -55 -1z"/>
<path d="M270 1505 l0 -135 25 0 c24 0 25 3 25 60 l0 60 35 0 c24 0 35 5 35
15 0 10 -11 15 -35 15 -35 0 -35 0 -35 45 l0 45 40 0 c29 0 40 4 40 15 0 12
-14 15 -65 15 l-65 0 0 -135z"/>
<path d="M695 1582 l-30 -7 -3 -103 -3 -102 26 0 c25 0 25 0 25 90 0 97 8 112
49 90 19 -9 21 -20 21 -95 0 -84 0 -85 25 -85 25 0 25 1 25 84 0 65 -4 88 -17
104 -20 23 -72 34 -118 24z"/>
<path d="M1135 1581 c-16 -3 -29 -10 -27 -14 1 -4 2 -11 2 -16 0 -6 11 -6 29
0 21 7 36 7 50 -1 38 -20 20 -50 -28 -50 -31 0 -71 -39 -71 -69 0 -49 52 -78
120 -66 l40 7 0 86 c0 48 -4 92 -8 99 -7 12 -57 34 -70 32 -4 -1 -20 -4 -37
-8z m75 -146 c0 -43 -1 -45 -30 -45 -40 0 -58 32 -35 66 9 15 25 24 40 24 23
0 25 -4 25 -45z"/>
<path d="M1350 1577 c-32 -16 -50 -52 -50 -102 0 -74 48 -123 105 -109 35 9
32 34 -5 34 -36 0 -50 23 -50 82 0 51 13 68 52 68 34 0 38 25 6 34 -30 8 -29
8 -58 -7z"/>
<path d="M1511 1581 c-14 -3 -27 -13 -29 -20 -3 -10 4 -12 29 -9 71 11 96 -34
28 -52 -73 -20 -98 -65 -60 -111 15 -19 29 -24 68 -24 80 0 83 3 83 94 0 61
-4 83 -17 99 -20 23 -66 34 -102 23z m69 -146 c0 -47 -12 -55 -54 -39 -22 8
-21 60 2 73 38 23 52 14 52 -34z"/>
<path d="M1728 1579 c-71 -27 -76 -169 -6 -205 62 -32 118 5 126 84 5 58 -17
108 -54 122 -29 12 -31 12 -66 -1z m56 -35 c16 -16 22 -96 10 -128 -9 -22 -51
-20 -64 3 -15 29 -12 93 6 119 18 26 27 27 48 6z"/>
<path d="M440 1492 c0 -72 3 -92 18 -104 26 -23 58 -30 102 -23 l39 7 3 104
c3 102 3 104 -19 104 -22 0 -23 -3 -23 -91 l0 -90 -32 3 -33 3 -3 88 c-3 85
-3 87 -27 87 -25 0 -25 -1 -25 -88z"/>
<path d="M1355 1333 c35 -9 39 -22 9 -28 -49 -11 -50 -13 -8 -14 42 -1 72 18
59 39 -3 5 -23 9 -43 9 -21 -1 -28 -3 -17 -6z"/>
<path d="M1303 1239 c-25 -9 -30 -38 -11 -57 17 -17 53 -15 68 3 25 30 -16 70
-57 54z"/>
<path d="M1520 1193 c0 -47 -1 -48 -32 -49 -48 -2 -88 -51 -88 -108 0 -80 65
-124 160 -108 l45 8 3 152 3 152 -46 0 -45 0 0 -47z m0 -154 c0 -44 -3 -60
-12 -57 -26 9 -18 118 8 118 2 0 4 -27 4 -61z"/>
<path d="M1070 1180 c0 -23 4 -30 20 -30 19 0 20 -7 20 -110 l0 -110 50 0 50
0 0 110 c0 103 1 110 20 110 16 0 20 7 20 30 l0 30 -90 0 -90 0 0 -30z"/>
<path d="M1703 1136 c-39 -18 -53 -43 -53 -95 0 -82 38 -117 123 -114 57 1 72
12 62 43 -6 19 -12 21 -40 16 -34 -7 -65 0 -65 14 0 4 27 11 60 15 60 7 60 7
60 40 0 70 -77 112 -147 81z m65 -64 c3 -18 -2 -22 -22 -22 -28 0 -34 18 -14
38 17 17 32 10 36 -16z"/>
<path d="M1280 1035 l0 -105 45 0 45 0 0 105 0 105 -45 0 -45 0 0 -105z"/>
<path d="M1300 660 l0 -149 36 -7 c83 -15 147 14 164 77 21 76 -19 139 -87
139 -32 0 -33 1 -33 45 l0 45 -40 0 -40 0 0 -150z m118 -38 c3 -43 -12 -77
-29 -66 -5 3 -9 30 -9 60 0 47 3 55 18 52 12 -2 18 -15 20 -46z"/>
<path d="M1767 658 l2 -153 40 -3 41 -3 0 155 0 156 -42 0 -43 0 2 -152z"/>
<path d="M515 768 c-31 -17 -45 -39 -45 -74 0 -46 9 -63 41 -80 40 -20 39 -48
-1 -42 -25 4 -31 0 -39 -24 -9 -26 -8 -30 17 -39 70 -27 152 17 152 82 0 29
-18 52 -74 97 -22 18 -10 34 21 30 34 -4 52 36 23 52 -24 13 -70 12 -95 -2z"/>
<path d="M948 767 c-28 -6 -38 -14 -38 -28 0 -10 -4 -19 -10 -19 -5 0 -10 -13
-10 -30 0 -16 5 -30 10 -30 6 0 10 -27 10 -60 0 -73 22 -103 73 -98 25 2 33 8
35 27 2 15 -3 28 -12 33 -21 12 -22 86 -1 94 20 8 20 64 1 64 -9 0 -16 12 -18
28 -3 27 -4 28 -40 19z"/>
<path d="M702 694 c-40 -37 -49 -86 -25 -134 24 -47 56 -62 122 -56 29 3 55 7
57 9 3 2 0 15 -5 29 -8 21 -14 24 -40 20 -17 -2 -39 -1 -48 2 -26 10 2 26 47
26 56 0 66 11 52 58 -15 50 -31 63 -86 69 -37 5 -47 1 -74 -23z m82 -41 c7
-17 -9 -33 -31 -33 -14 0 -18 32 -6 43 12 12 31 7 37 -10z"/>
<path d="M1057 713 c-9 -8 -9 -110 -1 -152 5 -21 16 -37 35 -46 32 -17 106
-20 144 -5 26 10 26 10 23 107 l-3 98 -40 0 -40 0 -3 -77 c-2 -60 -6 -78 -17
-78 -12 0 -15 17 -15 80 l0 80 -38 0 c-21 0 -42 -3 -45 -7z"/>
<path d="M1562 710 c-37 -16 -13 -45 37 -45 51 0 54 -17 5 -28 -21 -4 -46 -15
-56 -24 -24 -21 -23 -66 2 -88 25 -22 113 -31 154 -16 l28 11 -4 80 c-2 58 -8
84 -20 96 -20 20 -111 29 -146 14z m88 -136 c0 -19 -5 -25 -17 -22 -22 4 -30
38 -12 49 19 11 29 2 29 -27z"/>
</g>
</svg>
