<?xml version="1.0" standalone="no"?>
<!DOCTYPE svg PUBLIC "-//W3C//DTD SVG 20010904//EN"
 "http://www.w3.org/TR/2001/REC-SVG-20010904/DTD/svg10.dtd">
<svg version="1.0" xmlns="http://www.w3.org/2000/svg"
 width="550.000000pt" height="350.000000pt" viewBox="0 0 550.000000 350.000000"
 preserveAspectRatio="xMidYMid meet">

<g transform="translate(0.000000,350.000000) scale(0.100000,-0.100000)"
fill="#000000" stroke="none">
<path d="M1520 3229 c-19 -11 -39 -20 -43 -22 -4 -1 -12 -33 -18 -71 -8 -57
-7 -72 6 -86 8 -9 15 -21 15 -26 0 -5 11 -31 23 -57 21 -43 25 -46 37 -32 21
26 49 116 50 160 0 22 5 58 11 80 10 35 9 41 -11 57 -26 21 -25 21 -70 -3z"/>
<path d="M2103 3183 c-13 -2 -31 -16 -42 -31 -29 -42 -81 -161 -71 -167 4 -3
2 -26 -6 -52 -18 -61 -18 -113 0 -113 24 0 101 100 144 187 22 46 48 93 56
105 9 12 16 32 16 44 0 31 -31 40 -97 27z"/>
<path d="M877 3068 c-14 -20 -16 -21 -16 -5 -1 15 -7 13 -36 -14 -40 -38 -43
-63 -15 -119 11 -22 20 -46 20 -54 0 -8 13 -19 29 -24 15 -6 52 -33 80 -60 48
-46 52 -49 62 -30 19 35 9 148 -19 203 -14 28 -28 66 -31 85 -5 28 -11 36 -32
38 -18 2 -31 -4 -42 -20z"/>
<path d="M2557 2870 c-26 -16 -47 -34 -47 -40 0 -5 -7 -10 -15 -10 -8 0 -15
-6 -15 -14 0 -8 -13 -24 -29 -35 -23 -17 -29 -28 -28 -57 1 -24 -5 -39 -16
-45 -9 -6 -17 -16 -17 -23 0 -7 -11 -25 -25 -40 -14 -15 -25 -31 -25 -35 0 -5
-8 -12 -17 -16 -17 -6 -17 -7 1 -21 11 -8 29 -14 40 -14 23 0 82 18 111 33 11
6 32 17 47 24 15 8 57 43 93 79 36 35 80 72 97 82 64 36 42 97 -49 137 -30 14
-56 25 -57 25 -1 0 -23 -13 -49 -30z"/>
<path d="M1410 2803 c-35 -2 -67 -7 -70 -12 -3 -4 -25 -13 -49 -20 -45 -13
-133 -50 -186 -78 -137 -73 -138 -74 -234 -158 -76 -66 -121 -116 -121 -134 0
-10 -13 -35 -29 -57 -34 -48 -73 -142 -100 -249 -12 -44 -28 -93 -37 -108 -9
-16 -13 -31 -10 -34 3 -4 2 -11 -3 -17 -11 -14 12 -220 35 -301 9 -33 20 -76
25 -95 9 -40 66 -157 80 -166 5 -3 20 -26 33 -52 26 -52 95 -134 96 -115 0 6
-4 15 -10 18 -5 3 -10 11 -10 17 0 6 6 6 15 -2 9 -7 14 -24 13 -38 -2 -14 3
-27 10 -29 8 -3 10 2 6 14 -5 14 -4 15 4 4 6 -8 8 -20 6 -26 -3 -7 6 -19 20
-29 36 -23 41 -20 16 12 -50 65 -99 151 -116 202 -9 30 -21 59 -25 65 -5 5 -9
21 -9 36 0 15 -5 31 -10 34 -6 4 -9 -8 -8 -29 2 -20 6 -36 9 -36 4 0 9 -9 12
-20 3 -11 1 -20 -4 -20 -5 0 -9 7 -9 15 0 8 -4 15 -10 15 -5 0 -10 11 -10 24
0 14 -4 28 -10 31 -14 8 -13 52 2 61 8 5 9 0 6 -14 -4 -13 -2 -20 4 -16 6 4 7
21 3 43 -4 20 -7 43 -7 51 0 8 -6 38 -14 67 -14 52 -15 123 -1 134 11 8 36
110 30 125 -2 6 2 27 10 45 8 19 17 51 21 73 4 21 11 46 15 55 5 9 16 32 25
51 8 19 27 55 41 78 18 30 25 56 23 83 -1 29 3 43 18 54 30 22 40 18 16 -8
-12 -13 -22 -29 -22 -37 0 -7 12 3 28 23 15 20 33 36 40 37 7 0 15 6 18 14 6
16 129 116 144 116 5 0 10 5 10 10 0 6 6 10 13 10 7 0 34 13 59 29 25 16 54
31 64 33 11 2 19 10 19 18 0 8 4 18 9 22 5 3 11 14 12 23 1 9 5 19 8 22 8 9
150 11 161 3 6 -4 33 -4 60 0 28 4 43 8 35 10 -9 1 -5 6 10 11 22 8 22 8 -5 3
-16 -3 -46 -7 -65 -9 -30 -4 -31 -3 -10 4 l25 9 -29 1 c-45 2 -25 10 28 12 26
1 49 7 53 12 3 5 8 5 12 -2 4 -6 40 -11 84 -12 43 -1 80 -6 83 -11 5 -7 -18
-8 -70 -3 -48 4 -76 3 -76 -3 0 -6 17 -9 38 -9 20 1 59 -3 86 -7 46 -8 49 -7
43 10 -7 19 -7 19 7 0 11 -13 24 -17 48 -14 48 7 116 -14 215 -68 48 -26 103
-54 121 -63 17 -8 32 -19 32 -23 0 -4 4 -8 9 -8 12 0 -14 53 -36 73 -31 27
-163 104 -271 158 -104 51 -104 51 -235 60 -73 4 -145 7 -162 7 -16 -1 -59 -3
-95 -5z m31 -106 c-1 -4 -3 -7 -6 -7 -40 0 -40 0 -25 10 16 10 32 9 31 -3z
m382 1 c3 -10 8 -10 23 1 18 14 18 14 2 -3 -15 -17 -18 -17 -39 -2 -18 12 -19
16 -7 16 9 0 18 -6 21 -12z m67 -8 c0 -5 -2 -10 -4 -10 -3 0 -8 5 -11 10 -3 6
-1 10 4 10 6 0 11 -4 11 -10z m-647 -71 c-44 -13 -42 -23 2 -15 19 4 35 3 35
-2 0 -5 -14 -12 -31 -16 -17 -3 -44 -17 -61 -31 -35 -29 -41 -30 -62 -9 -20
20 -20 30 0 38 22 9 24 8 24 -9 0 -18 19 -19 42 -1 20 14 14 28 -8 19 -8 -3
-14 -1 -14 4 0 20 26 33 65 32 l40 -1 -32 -9z m-139 -82 c14 -8 23 -17 19 -20
-10 -11 -18 -8 -43 13 -26 23 -14 26 24 7z m-51 -64 c-67 -62 -95 -83 -89 -66
4 9 1 20 -6 25 -19 12 11 29 39 21 16 -4 23 -1 23 10 0 8 -6 17 -12 20 -7 2
-10 8 -6 12 4 4 15 2 23 -5 13 -11 19 -11 32 3 9 9 19 14 21 12 3 -3 -8 -17
-25 -32z m-113 -53 c0 -6 -7 -13 -16 -17 -13 -5 -13 -7 -2 -14 9 -6 5 -9 -14
-9 -14 0 -29 -6 -31 -12 -4 -8 -6 -7 -6 4 -1 9 11 26 27 37 30 23 42 26 42 11z
m-83 -92 c-3 -8 -6 -5 -6 6 -1 11 2 17 5 13 3 -3 4 -12 1 -19z m-3 -40 c10
-10 11 -19 3 -38 -16 -37 -48 -82 -55 -76 -3 3 3 16 14 28 14 16 15 20 4 16
-13 -5 -15 1 -11 31 l4 36 9 -32 c12 -45 21 -41 16 7 -4 44 -3 46 16 28z m-72
-187 c-5 -3 -17 -38 -27 -77 -9 -39 -21 -77 -25 -85 -14 -22 -25 -1 -25 49 0
61 21 112 47 112 10 0 21 7 25 15 7 21 -6 33 -16 16 -7 -10 -10 -8 -16 8 -5
15 -1 29 12 43 18 20 18 20 26 -28 5 -28 4 -50 -1 -53z m-92 -191 c0 -5 -4
-10 -10 -10 -5 0 -10 5 -10 10 0 6 5 10 10 10 6 0 10 -4 10 -10z m38 -15 c-3
-3 -9 2 -12 12 -6 14 -5 15 5 6 7 -7 10 -15 7 -18z m-64 -90 c-4 -8 1 -17 10
-21 23 -9 20 -23 -4 -17 -20 5 -30 53 -10 53 5 0 7 -7 4 -15z m31 6 c3 -5 1
-12 -5 -16 -5 -3 -10 1 -10 9 0 18 6 21 15 7z m12 -181 c10 -28 10 -38 0 -47
-10 -10 -13 -8 -15 14 -1 15 -9 37 -17 49 -8 13 -15 33 -15 46 l0 22 18 -24
c9 -14 22 -41 29 -60z"/>
<path d="M970 2440 c0 -5 5 -10 10 -10 6 0 10 5 10 10 0 6 -4 10 -10 10 -5 0
-10 -4 -10 -10z"/>
<path d="M730 2055 c-13 -34 -13 -88 0 -80 6 3 10 17 10 31 0 14 5 34 10 44 7
13 7 21 0 25 -6 3 -15 -6 -20 -20z"/>
<path d="M422 2673 c-5 -10 -12 -38 -15 -62 -5 -37 -2 -47 18 -65 49 -44 81
-63 116 -69 20 -3 55 -14 78 -25 22 -11 41 -16 41 -12 0 5 -9 12 -20 15 -11 3
-20 11 -20 16 0 6 9 7 20 4 35 -11 21 13 -15 26 -40 15 -48 34 -10 25 32 -8
32 7 0 32 -13 11 -22 22 -19 25 3 3 -7 14 -23 24 -15 10 -44 32 -63 50 -39 36
-74 42 -88 16z"/>
<path d="M1421 2662 c-14 -2 -41 -15 -60 -28 -37 -25 -36 -33 2 -11 12 6 40
17 62 22 41 11 38 24 -4 17z"/>
<path d="M1808 2633 c7 -3 16 -2 19 1 4 3 -2 6 -13 5 -11 0 -14 -3 -6 -6z"/>
<path d="M2218 2434 c-17 -29 -24 -34 -26 -21 -2 10 -9 16 -15 14 -8 -2 -11
-26 -9 -69 l4 -66 -112 -167 c-103 -152 -111 -169 -101 -191 6 -14 11 -33 11
-43 0 -10 11 -28 24 -40 l25 -23 49 103 c27 57 71 154 97 214 34 80 56 118 81
139 45 37 74 93 67 129 -5 23 -8 26 -21 15 -13 -11 -14 -10 -7 11 6 20 5 23
-11 17 -10 -4 -21 -1 -25 6 -5 8 -15 -1 -31 -28z"/>
<path d="M1446 2164 c-14 -15 -26 -32 -26 -39 0 -7 -14 -18 -32 -26 -17 -7
-54 -36 -82 -64 -53 -53 -69 -89 -82 -182 -4 -30 -12 -54 -21 -57 -7 -3 -21
-22 -29 -42 -14 -33 -13 -38 4 -67 24 -42 66 -66 90 -51 14 9 24 6 52 -13 48
-33 102 -45 189 -45 80 1 181 29 242 68 46 28 96 88 110 131 8 25 16 33 34 33
31 0 49 33 42 78 -7 42 -33 72 -62 72 -16 0 -26 9 -35 30 -23 56 -137 134
-213 145 -29 5 -54 16 -68 31 -31 33 -78 32 -113 -2z"/>
<path d="M267 2123 c-11 -11 -8 -48 7 -85 13 -29 22 -36 63 -46 39 -9 50 -8
59 3 7 10 28 13 67 11 70 -3 75 9 7 18 -58 8 -67 26 -12 26 l37 1 -30 24 c-38
32 -181 66 -198 48z"/>
<path d="M1942 1803 c-13 -14 -29 -22 -37 -19 -10 3 -21 -9 -33 -37 -24 -54
-98 -122 -168 -154 -60 -27 -204 -45 -287 -36 -45 5 -47 5 -47 -20 0 -21 -64
-362 -85 -453 -6 -27 57 -70 134 -90 65 -16 197 -18 308 -4 81 11 177 51 197
82 8 13 2 50 -22 150 -18 73 -39 164 -47 203 l-14 70 80 154 c62 120 77 156
68 167 -15 18 -19 17 -47 -13z"/>
<path d="M2990 1700 c10 -6 11 -10 3 -10 -7 0 -13 -4 -13 -10 0 -5 9 -10 21
-10 15 0 19 4 15 16 -3 9 -6 18 -6 20 0 2 -8 4 -17 4 -15 0 -16 -2 -3 -10z"/>
<path d="M2301 1575 c1 -114 3 -125 19 -125 17 0 19 11 19 125 1 119 0 125
-19 125 -20 0 -21 -5 -19 -125z m29 105 c0 -5 -5 -10 -11 -10 -5 0 -7 5 -4 10
3 6 8 10 11 10 2 0 4 -4 4 -10z m-8 -128 c2 -34 0 -62 -4 -62 -5 0 -7 39 -7
88 2 91 6 81 11 -26z m8 -82 c0 -5 -2 -10 -4 -10 -3 0 -8 5 -11 10 -3 6 -1 10
4 10 6 0 11 -4 11 -10z"/>
<path d="M2853 1693 c-9 -3 -13 -35 -13 -108 0 -112 4 -135 27 -135 8 0 11 5
8 10 -3 6 4 10 17 9 13 0 17 -3 11 -6 -21 -8 -15 -22 7 -16 29 8 25 33 -5 33
-24 0 -25 3 -25 61 0 52 3 62 20 66 23 6 27 23 5 23 -18 0 -37 34 -29 54 6 16
0 19 -23 9z m17 -115 c0 -43 -4 -78 -9 -78 -5 0 -9 41 -9 91 0 57 3 87 9 78 5
-8 9 -49 9 -91z"/>
<path d="M3090 1659 c0 -32 -3 -40 -15 -35 -8 3 -15 1 -15 -3 0 -5 7 -11 15
-14 10 -4 15 -26 17 -78 2 -54 7 -74 18 -77 12 -4 13 -2 3 9 -17 18 -16 29 2
29 8 0 15 8 15 18 0 13 -2 14 -9 4 -6 -11 -10 -10 -15 3 -3 10 -2 23 4 30 14
17 21 55 10 55 -4 0 -11 -6 -13 -12 -3 -7 -6 11 -6 40 -1 28 2 52 7 52 4 0 7
-15 7 -32 0 -29 4 -33 28 -36 15 -2 27 1 27 7 0 6 -11 11 -24 11 -21 0 -24 4
-21 28 3 25 -8 41 -27 42 -5 0 -8 -18 -8 -41z"/>
<path d="M3477 1694 c-4 -4 -7 -17 -6 -28 0 -21 1 -21 9 -1 8 19 9 19 9 -2 1
-16 -6 -24 -24 -29 -14 -3 -25 -10 -25 -15 0 -12 28 -11 32 1 2 6 2 -24 0 -67
-4 -98 2 -108 66 -104 21 1 33 31 12 31 -5 0 -10 -4 -10 -10 0 -5 -11 -10 -25
-10 -14 0 -25 4 -25 9 0 5 10 7 23 5 16 -3 14 -1 -8 10 -20 10 -24 15 -12 16
14 0 17 9 17 48 0 26 -5 53 -12 60 -8 8 -8 15 1 26 22 26 1 83 -22 60z"/>
<path d="M2667 1628 c-19 -7 -26 -15 -23 -25 3 -8 1 -11 -4 -8 -6 3 -10 -3
-10 -14 0 -12 6 -21 14 -21 8 0 16 -5 18 -11 2 -5 10 -11 18 -12 8 -2 21 -6
28 -10 6 -5 16 -6 21 -3 13 8 42 -4 35 -15 -3 -5 -11 -6 -17 -2 -9 5 -9 3 0
-8 23 -29 -34 -43 -94 -24 -14 5 -23 3 -23 -3 0 -6 18 -16 41 -22 49 -14 97 3
106 38 7 31 -9 47 -62 62 -52 15 -56 19 -48 48 6 26 38 29 70 7 18 -12 22 -13
26 -1 4 9 -3 16 -18 20 -13 3 -29 8 -37 10 -7 3 -26 0 -41 -6z"/>
<path d="M3685 1635 c-5 -2 -23 -6 -38 -9 -22 -5 -27 -11 -22 -26 4 -12 2 -20
-5 -20 -6 0 -8 5 -5 10 3 6 2 10 -4 10 -12 0 -24 -73 -16 -100 3 -11 11 -20
16 -20 6 0 7 4 4 10 -4 6 1 7 11 3 14 -5 16 -3 11 11 -4 10 -8 27 -8 39 -1 17
-3 15 -9 -8 l-8 -30 -1 33 c-1 21 4 32 13 32 8 0 16 6 19 14 8 20 42 26 69 12
13 -7 29 -11 36 -8 6 2 12 -1 12 -8 0 -6 -4 -8 -10 -5 -6 4 -10 -11 -10 -37 0
-31 3 -39 10 -28 8 13 10 13 10 -1 0 -11 -12 -19 -35 -23 -19 -4 -37 -10 -39
-15 -3 -4 7 -6 22 -3 15 3 24 1 20 -3 -4 -4 -24 -7 -44 -7 -30 0 -34 -2 -21
-10 23 -12 71 -2 90 20 39 45 30 122 -18 152 -18 11 -34 20 -36 19 -2 0 -8 -2
-14 -4z m42 -21 c-3 -3 -12 -4 -19 -1 -8 3 -5 6 6 6 11 1 17 -2 13 -5z"/>
<path d="M2411 1540 c-2 -75 0 -90 13 -90 19 0 17 -7 22 65 3 51 8 64 32 82
26 22 67 30 75 16 11 -19 18 -67 9 -58 -6 6 -12 19 -14 30 -2 11 -12 21 -23
23 -18 2 -19 2 -2 -8 13 -9 17 -25 17 -80 0 -63 2 -70 20 -70 18 0 20 7 20 64
0 92 -11 116 -53 116 -37 0 -87 -32 -87 -56 0 -8 -5 -14 -11 -14 -7 0 -8 7 -4
18 17 39 17 52 2 52 -11 0 -15 -18 -16 -90z m16 -12 c-3 -8 -6 -5 -6 6 -1 11
2 17 5 13 3 -3 4 -12 1 -19z m135 -30 c-8 -8 -9 -4 -5 13 4 13 8 18 11 10 2
-7 -1 -18 -6 -23z m-135 -30 c-3 -7 -5 -2 -5 12 0 14 2 19 5 13 2 -7 2 -19 0
-25z m138 2 c3 -5 1 -10 -4 -10 -6 0 -11 5 -11 10 0 6 2 10 4 10 3 0 8 -4 11
-10z"/>
<path d="M2810 1620 c0 -5 5 -10 10 -10 6 0 10 5 10 10 0 6 -4 10 -10 10 -5 0
-10 -4 -10 -10z"/>
<path d="M2980 1540 c0 -80 2 -90 18 -90 16 0 18 10 20 90 1 83 0 90 -18 90
-18 0 -20 -7 -20 -90z m17 48 c-3 -7 -5 -2 -5 12 0 14 2 19 5 13 2 -7 2 -19 0
-25z m0 -110 c-2 -13 -4 -5 -4 17 -1 22 1 32 4 23 2 -10 2 -28 0 -40z"/>
<path d="M3220 1566 c0 -82 11 -112 44 -118 29 -6 35 12 11 32 -11 9 -15 32
-15 81 0 62 -2 69 -20 69 -18 0 -20 -7 -20 -64z m48 -93 c14 -12 14 -13 -1
-13 -20 0 -37 37 -28 60 4 10 7 7 9 -10 2 -14 11 -31 20 -37z"/>
<path d="M3358 1625 c-3 -3 -3 -28 -1 -55 3 -43 0 -53 -28 -84 -34 -40 -31
-47 8 -16 32 25 53 26 53 3 0 -15 -2 -16 -10 -3 -8 13 -10 13 -10 -1 0 -25 27
-31 33 -8 3 10 1 22 -4 25 -5 3 -9 36 -9 75 0 51 -4 69 -13 69 -8 0 -16 -2
-19 -5z m22 -15 c0 -5 -2 -10 -4 -10 -3 0 -8 5 -11 10 -3 6 -1 10 4 10 6 0 11
-4 11 -10z m0 -95 c0 -8 -4 -15 -10 -15 -5 0 -7 7 -4 15 4 8 8 15 10 15 2 0 4
-7 4 -15z"/>
<path d="M3510 1618 c0 -4 9 -8 20 -8 11 0 20 4 20 9 0 6 -9 9 -20 8 -11 -1
-20 -5 -20 -9z"/>
<path d="M335 1588 c-22 -6 -46 -12 -54 -14 -17 -5 -8 -55 16 -89 20 -27 47
-31 105 -14 26 7 40 17 44 33 3 14 19 28 40 36 96 38 -30 78 -151 48z"/>
<path d="M1256 1475 c-44 -41 -78 -76 -75 -78 37 -31 103 -67 114 -63 8 3 17
22 20 43 3 21 13 66 21 100 7 34 14 65 14 68 0 14 -22 -2 -94 -70z"/>
<path d="M3629 1480 c-20 -13 -5 -22 21 -12 18 7 20 10 8 14 -8 4 -21 2 -29
-2z"/>
<path d="M3127 1460 c4 -16 11 -19 27 -14 27 8 29 11 21 23 -3 6 -17 11 -30
11 -18 0 -22 -4 -18 -20z"/>
<path d="M1112 1238 c-89 -156 -101 -171 -151 -188 -46 -15 -75 -40 -47 -40
20 0 21 -24 1 -40 -19 -16 -20 -44 -1 -37 10 4 13 1 9 -9 -6 -17 8 -18 26 -1
11 10 13 9 8 -6 -6 -15 -2 -16 21 -11 32 8 25 1 56 48 14 21 26 52 26 68 0 21
18 51 68 111 78 94 137 175 131 180 -20 16 -68 47 -72 47 -3 0 -37 -55 -75
-122z"/>
<path d="M3237 1294 c-12 -12 -8 -388 4 -423 14 -40 35 -51 96 -51 63 0 83 15
76 57 -4 27 -9 32 -27 28 -43 -10 -45 1 -48 200 l-3 190 -45 3 c-25 2 -49 0
-53 -4z"/>
<path d="M3455 1288 c-3 -7 -4 -115 -3 -238 l3 -225 50 0 50 0 5 108 c5 99 7
111 29 128 29 24 53 24 74 1 14 -15 17 -40 17 -130 l0 -112 50 0 50 0 0 135
c0 149 -9 182 -55 203 -39 18 -75 14 -124 -13 -23 -14 -44 -25 -45 -25 0 0 -1
39 -1 87 l0 88 -48 3 c-32 2 -49 -1 -52 -10z"/>
<path d="M2292 1053 l3 -228 52 -3 52 -3 3 133 3 133 45 -92 c42 -87 47 -93
75 -93 29 0 34 6 75 90 25 49 48 89 53 90 4 0 7 -58 7 -130 l0 -130 50 0 50 0
0 230 0 230 -57 -1 -58 0 -55 -114 c-30 -63 -58 -114 -62 -115 -4 0 -32 52
-62 115 l-56 115 -60 0 -60 0 2 -227z"/>
<path d="M639 1149 c-24 -18 -45 -33 -47 -35 -8 -6 20 -44 38 -54 28 -15 80
21 80 54 0 13 7 29 15 36 50 41 -28 40 -86 -1z"/>
<path d="M2925 1151 c-48 -22 -69 -44 -90 -94 -43 -103 13 -211 123 -235 42
-10 117 -1 152 18 19 10 50 48 50 61 0 4 -17 11 -38 16 -32 8 -42 7 -61 -9
-32 -25 -82 -23 -109 5 -40 43 -31 47 102 47 122 0 124 0 128 23 8 40 -20 113
-52 141 -56 47 -138 58 -205 27z m108 -62 c25 -11 51 -52 40 -63 -11 -11 -143
-7 -143 5 0 21 22 50 43 59 30 12 32 12 60 -1z"/>
<path d="M3945 1155 c-105 -37 -144 -166 -80 -266 62 -96 237 -96 300 0 68
103 22 239 -93 271 -49 13 -79 12 -127 -5z m125 -102 c29 -36 23 -108 -10
-135 -51 -42 -120 -1 -120 70 0 84 82 125 130 65z"/>
<path d="M4415 1161 c-11 -5 -28 -18 -39 -30 -22 -24 -36 -20 -29 9 5 18 0 20
-46 20 l-51 0 0 -170 0 -170 50 0 50 0 0 99 c0 115 11 136 75 149 39 8 40 9
40 52 0 48 -11 57 -50 41z"/>
<path d="M4598 1160 c-143 -43 -165 -247 -35 -320 46 -26 137 -31 178 -10 27
14 79 60 79 71 0 3 -19 11 -42 17 -37 10 -45 9 -63 -8 -30 -28 -80 -26 -111 5
-14 14 -22 30 -19 35 4 6 59 10 131 10 l124 0 0 38 c0 42 -32 109 -63 132 -50
36 -120 48 -179 30z m115 -92 c33 -39 23 -48 -52 -48 -39 0 -73 5 -76 10 -4 6
8 24 25 41 24 25 36 30 58 25 15 -4 35 -16 45 -28z"/>
<path d="M4963 1163 c-12 -2 -36 -17 -53 -33 -25 -23 -30 -36 -30 -73 0 -56
15 -69 113 -98 59 -18 68 -24 65 -43 -5 -37 -68 -32 -150 12 -6 3 -38 -49 -38
-63 0 -16 98 -47 149 -48 93 0 141 35 141 105 0 51 -23 74 -97 98 -82 27 -102
42 -83 64 17 21 48 20 93 -3 l37 -19 20 28 c18 26 19 28 2 42 -36 31 -104 44
-169 31z"/>
<path d="M1337 977 c-5 -14 -1 -137 5 -142 2 -1 56 -5 121 -9 113 -6 117 -5
117 14 0 11 5 20 10 20 6 0 10 -10 10 -21 0 -21 3 -22 61 -15 34 3 91 6 125 6
l64 0 0 81 c0 69 -2 80 -15 75 -142 -54 -338 -54 -478 0 -8 3 -17 -1 -20 -9z"/>
<path d="M1405 790 c-2 -4 0 -36 5 -71 21 -147 40 -306 40 -332 0 -26 3 -28
33 -25 l32 3 3 209 c2 161 -1 211 -10 218 -15 9 -97 8 -103 -2z"/>
<path d="M1673 794 c-10 -4 -13 -55 -13 -204 0 -109 3 -205 6 -214 4 -9 18
-16 34 -16 27 0 27 1 39 98 6 53 18 148 26 210 8 63 13 117 11 121 -6 9 -85
12 -103 5z"/>
<path d="M2750 685 l0 -45 50 0 50 0 0 45 0 45 -50 0 -50 0 0 -45z"/>
<path d="M2297 713 c-4 -3 -7 -107 -7 -230 l0 -223 118 0 c143 0 199 20 247
90 26 37 30 54 34 121 2 65 -1 86 -19 123 -30 62 -78 102 -140 115 -56 12
-223 15 -233 4z m205 -93 c95 -27 117 -177 37 -245 -25 -20 -41 -25 -85 -25
l-54 0 0 140 0 140 33 0 c17 0 49 -5 69 -10z"/>
<path d="M2757 593 c-4 -3 -7 -80 -7 -170 l0 -163 50 0 50 0 0 170 0 170 -43
0 c-24 0 -47 -3 -50 -7z"/>
<path d="M2968 583 c-42 -17 -43 -20 -26 -58 13 -29 14 -29 48 -10 34 19 105
19 124 -1 9 -8 16 -24 16 -35 0 -16 -5 -18 -44 -13 -63 9 -110 -2 -145 -35
-43 -40 -43 -97 -2 -143 26 -30 35 -33 84 -33 43 0 63 6 88 24 22 16 34 20 37
13 8 -26 35 -42 67 -42 31 0 33 2 37 41 2 23 -2 48 -9 58 -7 9 -13 46 -13 86
0 82 -13 111 -59 142 -27 18 -47 23 -100 22 -36 0 -83 -7 -103 -16z m162 -192
c0 -35 -11 -50 -46 -61 -29 -10 -39 -9 -59 4 -51 33 -19 76 56 76 42 0 49 -3
49 -19z"/>
<path d="M3353 580 c-39 -23 -53 -48 -53 -93 0 -44 21 -62 106 -91 69 -23 92
-48 62 -68 -16 -11 -73 -1 -112 19 -28 14 -30 14 -47 -8 -10 -13 -19 -27 -19
-32 0 -16 67 -46 118 -53 104 -13 172 30 172 107 0 50 -19 67 -112 99 -58 20
-73 29 -73 45 0 27 50 32 101 10 20 -8 38 -14 39 -13 8 10 25 48 25 55 0 5
-16 17 -35 26 -49 23 -132 22 -172 -3z"/>
<path d="M1364 310 c-52 -23 -62 -38 -33 -49 27 -9 180 -3 192 9 4 4 5 19 1
34 -6 24 -10 26 -63 25 -31 0 -74 -8 -97 -19z"/>
<path d="M1653 307 c-18 -40 -4 -47 100 -49 97 -2 132 8 105 29 -28 22 -101
43 -147 43 -40 0 -49 -4 -58 -23z"/>
<path d="M1148 112 c-137 -1 -248 -6 -248 -11 0 -5 616 -9 1403 -10 1285 -2
1856 4 1842 17 -5 5 -2568 9 -2997 4z"/>
<path d="M4179 109 c-9 -5 33 -9 105 -9 66 0 117 2 115 5 -9 9 -207 13 -220 4z"/>
<path d="M4478 103 c29 -2 74 -2 100 0 26 2 2 3 -53 3 -55 0 -76 -1 -47 -3z"/>
<path d="M4663 103 c9 -2 23 -2 30 0 6 3 -1 5 -18 5 -16 0 -22 -2 -12 -5z"/>
<path d="M4778 103 c7 -3 16 -2 19 1 4 3 -2 6 -13 5 -11 0 -14 -3 -6 -6z"/>
<path d="M4480 9 c0 -5 5 -7 10 -4 6 3 10 8 10 11 0 2 -4 4 -10 4 -5 0 -10 -5
-10 -11z"/>
</g>
</svg>
