<svg viewBox="0 -5 511.99976 511" xmlns="http://www.w3.org/2000/svg"><path d="m444.066406 164.71875h57.460938c-13.640625-50.160156-45.027344-94.699219-87.886719-124.527344v94.09375c0 16.777344 13.648437 30.433594 30.425781 30.433594zm0 0"/><path d="m192.066406 297.894531v-28.707031c0-13.839844-5.386718-26.84375-15.164062-36.621094l-95.367188-95.367187c-24.5625 58.550781-22.722656 126.027343 5.449219 183.445312 11.222656-16.089843 31.523437-25.714843 57.257813-25.714843 18.28125.453124 31.503906-1.441407 47.824218 2.964843zm0 0"/><path d="m222.402344 269.1875v47.046875c1.746094 2.054687 3.335937 4.246094 4.738281 6.582031 3.613281 5.964844 9.6875 9.523438 16.242187 9.523438 46.769532.769531 53.734376-1.90625 66.539063 2.875l21.335937-26.269532c1.679688-2.101562 8.546876-7.441406 8.683594-18.371093.070313-6.484375-2.40625-12.570313-6.988281-17.148438-3.753906-2.875-12.441406-16.804687-30.980469-16.804687h-29.664062c-10.425782 0-19.738282-6.21875-23.730469-15.855469-3.984375-9.636719-1.800781-20.625 5.570313-28.007813l49.058593-49.058593c6.558594-6.558594 6.585938-17.175781 0-23.761719l-115.960937-115.960938c-38.242188 19.136719-69.964844 49.035157-91.316406 84.71875l102.425781 102.425782c15.503906 15.5 24.046875 36.125 24.046875 58.066406zm0 0"/><path d="m324.652344 185.15625-41.128906 41.128906h18.449218c32.9375 0 48.816406 23.050782 52.4375 25.695313 21.425782 21.425781 20.96875 55.863281-.171875 76.773437l-20.949219 25.800782c7.242188 11.949218 8.449219 26.222656 4.183594 38.636718 30.929688-3.421875 123.289063-47.671875 140.25-56.007812 20.539063-34.164063 31.496094-73.375 31.496094-114.273438 0-9.3125-.574219-18.625-1.738281-27.855468h-63.414063c-33.5 0-60.757812-27.269532-60.757812-60.769532v-111.796875c-52.375-25.257812-112.207032-28.511719-165.667969-11.019531l107.015625 107.015625c18.40625 18.382813 18.449219 48.21875-.003906 66.671875zm0 0"/><path d="m15.167969 337.742188c-8.378907 0-15.167969 6.789062-15.167969 15.164062v133.660156c0 8.375 6.789062 15.167969 15.167969 15.167969h62.136719c.5625-156.855469-1.257813-151.84375 1.632812-163.992187zm0 0"/><path d="m500.867188 359.566406c-100.703126 45.972656-109.820313 50.132813-109.9375 50.183594-44.339844 19.695312-78.195313 13.394531-97.011719 14.625-15.742188 0-63.902344 0-86.378907 0-8.375 0-15.164062-6.789062-15.164062-15.167969 0-8.375 6.789062-15.164062 15.164062-15.164062 91.289063-.972657 90.101563 2.757812 97.460938-4.601563 9.875-9.882812 2.800781-26.769531-11.085938-26.769531h-50.535156c-17.257812 0-33.027344-9.027344-42.183594-24.148437-5.40625-8.9375-17.78125-14.273438-33.09375-14.273438h-23.859374c-11.003907 0-36.601563 2.695312-36.601563 27.644531v149.855469h205.371094c30.011719 0 59.578125-7.988281 85.511719-23.09375l92.335937-53.789062c23.652344-13.777344 28.132813-45.496094 10.007813-65.300782zm0 0"/></svg>